<svg width="35" height="36" viewBox="0 0 35 36" fill="none" xmlns="http://www.w3.org/2000/svg">
<path d="M33.3035 30.8393V18.4715C33.3036 17.611 33.128 16.7596 32.7875 15.9694C32.447 15.1791 31.9488 14.4668 31.3233 13.8758L19.6714 2.86395C19.0846 2.30914 18.3076 2 17.5 2C16.6924 2 15.9155 2.30914 15.3286 2.86395L3.67671 13.8758C3.05125 14.4668 2.55301 15.1791 2.21251 15.9694C1.87202 16.7596 1.69644 17.611 1.69653 18.4715V30.8393C1.69653 31.6776 2.02953 32.4815 2.62228 33.0743C3.21503 33.667 4.01896 34 4.85723 34H30.1428C30.9811 34 31.785 33.667 32.3778 33.0743C32.9705 32.4815 33.3035 31.6776 33.3035 30.8393Z" stroke="white" stroke-width="2.66667" stroke-linecap="round" stroke-linejoin="round"/>
</svg>
