<svg width="31" height="40" viewBox="0 0 31 40" fill="none" xmlns="http://www.w3.org/2000/svg">
<g filter="url(#filter0_d_1096_3540)">
<mask id="path-1-inside-1_1096_3540" fill="white">
<path d="M15.5 2.28571C16.6302 2.28571 17.735 2.62085 18.6747 3.24875C19.6144 3.87664 20.3468 4.76909 20.7793 5.81324C21.2118 6.85739 21.325 8.00634 21.1045 9.1148C20.884 10.2233 20.3398 11.2415 19.5406 12.0406C18.7415 12.8398 17.7233 13.384 16.6148 13.6045C15.5063 13.825 14.3574 13.7118 13.3132 13.2793C12.2691 12.8468 11.3766 12.1144 10.7487 11.1747C10.1209 10.235 9.78572 9.13018 9.78572 8C9.78572 6.48448 10.3878 5.03103 11.4594 3.95939C12.531 2.88775 13.9845 2.28571 15.5 2.28571ZM15.5 0C13.9178 0 12.371 0.469192 11.0554 1.34824C9.73985 2.22729 8.71447 3.47672 8.10897 4.93853C7.50347 6.40034 7.34504 8.00887 7.65372 9.56072C7.9624 11.1126 8.72433 12.538 9.84315 13.6569C10.962 14.7757 12.3874 15.5376 13.9393 15.8463C15.4911 16.155 17.0997 15.9965 18.5615 15.391C20.0233 14.7855 21.2727 13.7602 22.1518 12.4446C23.0308 11.129 23.5 9.58225 23.5 8C23.5 5.87827 22.6571 3.84344 21.1569 2.34315C19.6566 0.842855 17.6217 0 15.5 0Z"/>
</mask>
<path d="M9.78572 8H5.78572H9.78572ZM15.5 6.28571C15.8391 6.28571 16.1705 6.38626 16.4524 6.57462L20.897 -0.0771333C19.2995 -1.14455 17.4213 -1.71429 15.5 -1.71429V6.28571ZM16.4524 6.57462C16.7343 6.76299 16.954 7.03073 17.0838 7.34397L24.4748 4.2825C23.7396 2.50745 22.4945 0.990285 20.897 -0.0771333L16.4524 6.57462ZM17.0838 7.34397C17.2135 7.65722 17.2475 8.0019 17.1814 8.33444L25.0276 9.89516C25.4025 8.01078 25.2101 6.05756 24.4748 4.2825L17.0838 7.34397ZM17.1814 8.33444C17.1152 8.66698 16.9519 8.97244 16.7122 9.21218L22.369 14.869C23.7276 13.5105 24.6528 11.7796 25.0276 9.89516L17.1814 8.33444ZM16.7122 9.21218C16.4724 9.45193 16.167 9.6152 15.8344 9.68135L17.3952 17.5276C19.2796 17.1528 21.0105 16.2276 22.369 14.869L16.7122 9.21218ZM15.8344 9.68135C15.5019 9.74749 15.1572 9.71354 14.844 9.58379L11.7825 16.9748C13.5576 17.7101 15.5108 17.9025 17.3952 17.5276L15.8344 9.68135ZM14.844 9.58379C14.5307 9.45404 14.263 9.23432 14.0746 8.95241L7.42287 13.397C8.49029 14.9945 10.0075 16.2396 11.7825 16.9748L14.844 9.58379ZM14.0746 8.95241C13.8863 8.67049 13.7857 8.33905 13.7857 8H5.78572C5.78572 9.9213 6.35545 11.7995 7.42287 13.397L14.0746 8.95241ZM13.7857 8C13.7857 7.54534 13.9663 7.10931 14.2878 6.78782L8.63097 1.13096C6.80918 2.95274 5.78572 5.42361 5.78572 8H13.7857ZM14.2878 6.78782C14.6093 6.46633 15.0453 6.28571 15.5 6.28571V-1.71429C12.9236 -1.71429 10.4527 -0.690819 8.63097 1.13096L14.2878 6.78782ZM15.5 -4C13.1266 -4 10.8066 -3.29621 8.83316 -1.97764L13.2777 4.67412C13.9355 4.2346 14.7089 4 15.5 4V-4ZM8.83316 -1.97764C6.85977 -0.659059 5.3217 1.21509 4.41345 3.4078L11.8045 6.46927C12.1072 5.73836 12.6199 5.11365 13.2777 4.67412L8.83316 -1.97764ZM4.41345 3.4078C3.5052 5.60051 3.26756 8.01331 3.73058 10.3411L11.5769 8.78036C11.4225 8.00444 11.5017 7.20017 11.8045 6.46927L4.41345 3.4078ZM3.73058 10.3411C4.1936 12.6689 5.33649 14.8071 7.01472 16.4853L12.6716 10.8284C12.1122 10.269 11.7312 9.55628 11.5769 8.78036L3.73058 10.3411ZM7.01472 16.4853C8.69295 18.1635 10.8311 19.3064 13.1589 19.7694L14.7196 11.9231C13.9437 11.7688 13.231 11.3878 12.6716 10.8284L7.01472 16.4853ZM13.1589 19.7694C15.4867 20.2324 17.8995 19.9948 20.0922 19.0866L17.0307 11.6955C16.2998 11.9983 15.4956 12.0775 14.7196 11.9231L13.1589 19.7694ZM20.0922 19.0866C22.2849 18.1783 24.1591 16.6402 25.4776 14.6668L18.8259 10.2223C18.3864 10.8801 17.7616 11.3928 17.0307 11.6955L20.0922 19.0866ZM25.4776 14.6668C26.7962 12.6935 27.5 10.3734 27.5 8H19.5C19.5 8.79113 19.2654 9.56449 18.8259 10.2223L25.4776 14.6668ZM27.5 8C27.5 4.8174 26.2357 1.76515 23.9853 -0.485281L18.3284 5.17157C19.0786 5.92172 19.5 6.93913 19.5 8H27.5ZM23.9853 -0.485281C21.7348 -2.73572 18.6826 -4 15.5 -4V4C16.5609 4 17.5783 4.42143 18.3284 5.17157L23.9853 -0.485281Z" fill="white" mask="url(#path-1-inside-1_1096_3540)"/>
<mask id="path-3-inside-2_1096_3540" fill="white">
<path d="M26.9287 31.9999H24.643V26.2856C24.643 24.7701 24.0409 23.3167 22.9693 22.245C21.8976 21.1734 20.4442 20.5714 18.9287 20.5714H12.0715C10.556 20.5714 9.10256 21.1734 8.03092 22.245C6.95929 23.3167 6.35725 24.7701 6.35725 26.2856V31.9999H4.07153V26.2856C4.07153 24.1639 4.91439 22.1291 6.41468 20.6288C7.91497 19.1285 9.9498 18.2856 12.0715 18.2856H18.9287C21.0504 18.2856 23.0852 19.1285 24.5855 20.6288C26.0858 22.1291 26.9287 24.1639 26.9287 26.2856V31.9999Z"/>
</mask>
<path d="M26.9287 31.9999V40.9999H35.9287V31.9999H26.9287ZM24.643 31.9999H15.643V40.9999H24.643V31.9999ZM6.35725 26.2856H-2.64275H6.35725ZM6.35725 31.9999V40.9999H15.3572V31.9999H6.35725ZM4.07153 31.9999H-4.92847V40.9999H4.07153V31.9999ZM12.0715 18.2856V9.28564V18.2856ZM26.9287 22.9999H24.643V40.9999H26.9287V22.9999ZM33.643 31.9999V26.2856H15.643V31.9999H33.643ZM33.643 26.2856C33.643 22.3832 32.0927 18.6405 29.3332 15.8811L16.6053 28.609C15.9891 27.9928 15.643 27.1571 15.643 26.2856H33.643ZM29.3332 15.8811C26.5738 13.1216 22.8311 11.5714 18.9287 11.5714V29.5714C18.0572 29.5714 17.2215 29.2252 16.6053 28.609L29.3332 15.8811ZM18.9287 11.5714H12.0715V29.5714H18.9287V11.5714ZM12.0715 11.5714C8.16906 11.5714 4.42643 13.1216 1.66696 15.8811L14.3949 28.609C13.7787 29.2252 12.943 29.5714 12.0715 29.5714V11.5714ZM1.66696 15.8811C-1.0925 18.6405 -2.64275 22.3832 -2.64275 26.2856H15.3572C15.3572 27.1571 15.0111 27.9928 14.3949 28.609L1.66696 15.8811ZM-2.64275 26.2856V31.9999H15.3572V26.2856H-2.64275ZM6.35725 22.9999H4.07153V40.9999H6.35725V22.9999ZM13.0715 31.9999V26.2856H-4.92847V31.9999H13.0715ZM13.0715 26.2856C13.0715 26.5509 12.9662 26.8052 12.7786 26.9928L0.0507174 14.2648C-3.1374 17.4529 -4.92847 21.777 -4.92847 26.2856H13.0715ZM12.7786 26.9928C12.5911 27.1803 12.3368 27.2856 12.0715 27.2856V9.28564C7.56285 9.28564 3.23883 11.0767 0.0507174 14.2648L12.7786 26.9928ZM12.0715 27.2856H18.9287V9.28564H12.0715V27.2856ZM18.9287 27.2856C18.6635 27.2856 18.4091 27.1803 18.2216 26.9928L30.9495 14.2648C27.7614 11.0767 23.4374 9.28564 18.9287 9.28564V27.2856ZM18.2216 26.9928C18.034 26.8052 17.9287 26.5509 17.9287 26.2856H35.9287C35.9287 21.777 34.1376 17.4529 30.9495 14.2648L18.2216 26.9928ZM17.9287 26.2856V31.9999H35.9287V26.2856H17.9287Z" fill="white" mask="url(#path-3-inside-2_1096_3540)"/>
</g>
<defs>
<filter id="filter0_d_1096_3540" x="0.0715332" y="0" width="30.8572" height="40" filterUnits="userSpaceOnUse" color-interpolation-filters="sRGB">
<feFlood flood-opacity="0" result="BackgroundImageFix"/>
<feColorMatrix in="SourceAlpha" type="matrix" values="0 0 0 0 0 0 0 0 0 0 0 0 0 0 0 0 0 0 127 0" result="hardAlpha"/>
<feOffset dy="4"/>
<feGaussianBlur stdDeviation="2"/>
<feComposite in2="hardAlpha" operator="out"/>
<feColorMatrix type="matrix" values="0 0 0 0 0 0 0 0 0 0 0 0 0 0 0 0 0 0 0.25 0"/>
<feBlend mode="normal" in2="BackgroundImageFix" result="effect1_dropShadow_1096_3540"/>
<feBlend mode="normal" in="SourceGraphic" in2="effect1_dropShadow_1096_3540" result="shape"/>
</filter>
</defs>
</svg>
